<svg width="1284" height="1355" viewBox="0 0 1284 1355" fill="none" xmlns="http://www.w3.org/2000/svg">
<mask id="path-1-inside-1_53_113" fill="white">
<path d="M575.542 1.52949C571.675 2.59615 564.208 5.39615 558.875 8.06282C551.808 11.6628 443.942 78.1962 429.942 87.6628C428.875 88.4628 419.942 93.9295 410.208 100.063C400.475 106.063 368.208 126.329 338.342 144.996C308.608 163.663 283.542 179.263 282.742 179.663C281.408 180.329 274.475 184.729 260.608 193.663C258.075 195.396 242.742 204.996 226.608 214.996C210.475 225.129 189.008 238.463 178.875 244.863C168.742 251.129 159.008 257.263 157.275 258.33C140.875 268.33 55.9416 321.663 46.6082 327.796C33.2749 336.596 28.0749 341.13 19.5416 351.263C13.5416 358.463 4.60824 374.463 4.60824 377.796C4.60824 378.996 3.94157 379.396 3.00824 378.863C2.20824 378.33 1.94157 378.463 2.34157 379.263C2.87491 380.063 2.47491 384.73 1.40824 389.796C-1.79176 406.996 0.474906 423.796 8.07491 439.93C16.4749 457.796 21.1416 463.13 55.8082 494.863C63.0082 501.53 88.7416 525.396 98.0749 534.063C103.142 538.73 108.608 543.796 110.208 545.263C111.942 546.73 116.342 550.73 119.942 554.196C127.542 561.396 139.942 572.863 162.475 593.663C171.275 601.663 180.475 610.33 183.142 612.863C185.808 615.263 193.008 621.796 199.142 627.53C205.275 633.13 212.208 639.396 214.475 641.663C219.942 646.863 258.342 682.33 268.742 691.796C275.808 698.196 302.608 723.13 307.408 727.663C310.075 730.196 317.808 737.396 324.608 743.663C331.408 749.93 338.342 756.196 339.808 757.663C341.408 759.13 354.342 771.13 368.608 784.33C382.875 797.53 397.808 811.263 401.808 814.996C405.675 818.596 410.208 822.863 411.808 824.33C429.142 840.33 448.475 858.196 450.742 860.33C484.342 892.463 500.342 903.53 514.608 904.73C529.008 905.93 535.808 897.13 535.808 876.996C535.675 862.33 534.875 857.396 527.675 827.663C524.342 814.063 521.542 802.063 521.275 800.996C521.008 799.93 519.675 794.196 518.075 788.33C516.608 782.463 515.142 776.196 514.742 774.33C514.342 772.463 512.608 765.263 510.875 758.33C509.142 751.396 505.808 737.53 503.408 727.663C501.142 717.796 498.608 707.53 497.942 704.996C496.475 699.796 486.208 658.063 485.275 653.796C485.008 652.196 484.208 648.996 483.408 646.596C482.742 644.33 482.342 642.33 482.608 642.33C482.875 642.33 482.342 639.93 481.275 636.996C480.208 634.063 479.408 631.263 479.408 630.996C479.408 630.596 479.142 628.596 478.742 626.596C478.342 624.596 477.675 621.13 477.275 618.996C477.008 616.73 475.808 610.596 474.742 605.263C473.808 599.93 473.408 595.396 473.942 594.996C475.008 594.33 551.942 595.396 561.942 596.196C565.275 596.463 573.942 597.13 581.275 597.663C588.608 598.063 596.742 598.73 599.275 598.996C601.808 599.263 607.542 599.93 611.942 600.33C616.342 600.73 621.808 601.396 623.942 601.796C626.208 602.196 630.075 602.596 632.608 602.863C643.275 604.063 651.008 605.13 657.942 606.33C661.942 606.996 667.675 607.93 670.608 608.33C673.542 608.73 676.875 609.263 677.942 609.663C679.008 609.93 682.075 610.463 684.608 610.863C687.142 611.263 693.142 612.463 697.942 613.53C702.742 614.596 708.742 615.93 711.275 616.33C713.808 616.73 724.875 619.53 735.942 622.33C839.542 649.263 916.342 693.53 963.808 753.663C973.008 765.263 974.875 767.796 984.875 783.663C997.808 804.063 1011.54 838.996 1017.41 866.996C1020.61 882.196 1022.21 898.463 1022.21 916.73C1022.21 932.73 1021.94 935.396 1019.14 952.996C1014.21 983.796 1001.01 1019.53 984.342 1047.4C981.542 1051.93 979.275 1055.93 979.275 1056.2C979.275 1057.26 961.942 1082.2 955.008 1091C940.075 1110.06 932.875 1118.06 911.275 1139.66C894.608 1156.33 881.675 1168.33 869.942 1177.8C867.408 1179.93 865.008 1181.93 864.608 1182.33C863.408 1183.8 832.075 1207.93 828.742 1210.06C826.742 1211.26 825.008 1212.6 824.608 1213.13C823.008 1215.13 783.142 1241.93 765.275 1253C760.208 1256.2 754.475 1259.66 752.608 1260.86C746.475 1264.73 743.942 1266.2 741.942 1267.13C740.875 1267.8 736.875 1270.2 733.008 1272.6C729.142 1275 725.808 1277 725.408 1277C725.008 1277 721.808 1278.73 718.342 1280.86C709.275 1286.46 690.742 1296.2 658.608 1312.46C627.808 1328.2 619.275 1333.26 613.275 1339.53C609.542 1343.53 609.408 1343.93 611.408 1347.4C615.142 1354.06 634.208 1356.06 659.275 1352.33C665.542 1351.4 673.275 1350.2 676.608 1349.8C686.875 1348.33 722.342 1342.33 728.608 1341C731.942 1340.33 736.475 1339.4 738.608 1339C740.875 1338.6 743.808 1338.06 745.275 1337.8C746.742 1337.53 754.208 1335.93 761.942 1334.33C798.608 1326.86 850.475 1313.13 884.608 1301.8C901.675 1296.2 931.142 1285.8 937.008 1283.26C939.408 1282.2 943.942 1280.33 947.275 1279C950.608 1277.66 955.675 1275.53 958.608 1274.2C961.542 1273 967.275 1270.6 971.275 1268.86C984.208 1263.53 1023.41 1243.53 1039.27 1234.33C1053.41 1226.06 1082.61 1207.8 1087.27 1204.06C1088.34 1203.26 1096.07 1197.4 1104.34 1191.26C1129.14 1172.6 1158.47 1145.4 1179.94 1121C1209.54 1087.4 1235.41 1045 1253.01 1001.66C1262.87 977.396 1274.07 938.596 1277.27 916.996C1277.81 913.663 1278.34 909.53 1278.61 907.663C1282.34 884.196 1283.81 863.796 1283.81 836.996C1283.81 819.263 1282.61 794.063 1281.41 787.663C1281.01 785.796 1280.47 780.73 1279.94 776.33C1279.54 771.93 1278.87 767.13 1278.61 765.663C1278.21 764.196 1277.67 760.863 1277.41 758.33C1276.34 750.33 1272.61 731.53 1269.14 717.663C1256.61 667.13 1235.94 618.596 1211.94 583.663C1201.41 568.33 1194.87 559.13 1194.07 558.33C1193.54 557.93 1191.14 554.996 1188.61 551.663C1178.87 538.996 1140.87 499.93 1127.27 488.73C1123.94 485.93 1119.81 482.463 1117.94 480.863C1096.21 462.463 1052.07 432.196 1024.74 416.596C998.075 401.663 967.942 386.196 945.275 376.063C940.208 373.796 932.075 370.063 927.275 367.93C922.475 365.796 908.742 360.196 896.608 355.396C884.475 350.596 873.408 346.196 871.942 345.663C868.608 344.33 868.742 344.33 863.942 342.996C861.808 342.463 859.408 341.53 858.608 340.996C857.408 340.063 813.142 325.263 791.275 318.463C770.875 312.063 717.008 297.663 693.942 292.33C674.608 287.796 657.542 284.063 641.275 280.863C618.875 276.33 619.008 276.33 607.942 274.463C603.542 273.663 598.475 272.73 596.608 272.33C590.875 271.13 561.542 266.463 554.608 265.53C551.008 265.13 547.675 264.596 547.275 264.33C546.875 264.063 542.742 263.53 537.942 262.996C529.808 262.196 523.942 261.396 519.275 260.33C518.208 260.063 514.742 259.796 511.542 259.796C506.075 259.663 505.942 259.53 506.742 255.93C507.275 253.929 511.408 242.996 516.075 231.663C523.808 212.463 526.608 206.063 539.808 177.929C542.475 172.329 546.742 162.996 549.408 157.263C552.075 151.663 556.608 141.929 559.542 135.663C562.475 129.396 566.875 120.063 569.275 114.996C577.008 98.3295 583.408 84.5962 589.808 70.9962C605.142 38.4628 609.275 20.1962 603.542 8.99615C599.275 0.46282 590.208 -1.93718 575.542 1.52949Z"/>
</mask>
<path d="M575.542 1.52949C571.675 2.59615 564.208 5.39615 558.875 8.06282C551.808 11.6628 443.942 78.1962 429.942 87.6628C428.875 88.4628 419.942 93.9295 410.208 100.063C400.475 106.063 368.208 126.329 338.342 144.996C308.608 163.663 283.542 179.263 282.742 179.663C281.408 180.329 274.475 184.729 260.608 193.663C258.075 195.396 242.742 204.996 226.608 214.996C210.475 225.129 189.008 238.463 178.875 244.863C168.742 251.129 159.008 257.263 157.275 258.33C140.875 268.33 55.9416 321.663 46.6082 327.796C33.2749 336.596 28.0749 341.13 19.5416 351.263C13.5416 358.463 4.60824 374.463 4.60824 377.796C4.60824 378.996 3.94157 379.396 3.00824 378.863C2.20824 378.33 1.94157 378.463 2.34157 379.263C2.87491 380.063 2.47491 384.73 1.40824 389.796C-1.79176 406.996 0.474906 423.796 8.07491 439.93C16.4749 457.796 21.1416 463.13 55.8082 494.863C63.0082 501.53 88.7416 525.396 98.0749 534.063C103.142 538.73 108.608 543.796 110.208 545.263C111.942 546.73 116.342 550.73 119.942 554.196C127.542 561.396 139.942 572.863 162.475 593.663C171.275 601.663 180.475 610.33 183.142 612.863C185.808 615.263 193.008 621.796 199.142 627.53C205.275 633.13 212.208 639.396 214.475 641.663C219.942 646.863 258.342 682.33 268.742 691.796C275.808 698.196 302.608 723.13 307.408 727.663C310.075 730.196 317.808 737.396 324.608 743.663C331.408 749.93 338.342 756.196 339.808 757.663C341.408 759.13 354.342 771.13 368.608 784.33C382.875 797.53 397.808 811.263 401.808 814.996C405.675 818.596 410.208 822.863 411.808 824.33C429.142 840.33 448.475 858.196 450.742 860.33C484.342 892.463 500.342 903.53 514.608 904.73C529.008 905.93 535.808 897.13 535.808 876.996C535.675 862.33 534.875 857.396 527.675 827.663C524.342 814.063 521.542 802.063 521.275 800.996C521.008 799.93 519.675 794.196 518.075 788.33C516.608 782.463 515.142 776.196 514.742 774.33C514.342 772.463 512.608 765.263 510.875 758.33C509.142 751.396 505.808 737.53 503.408 727.663C501.142 717.796 498.608 707.53 497.942 704.996C496.475 699.796 486.208 658.063 485.275 653.796C485.008 652.196 484.208 648.996 483.408 646.596C482.742 644.33 482.342 642.33 482.608 642.33C482.875 642.33 482.342 639.93 481.275 636.996C480.208 634.063 479.408 631.263 479.408 630.996C479.408 630.596 479.142 628.596 478.742 626.596C478.342 624.596 477.675 621.13 477.275 618.996C477.008 616.73 475.808 610.596 474.742 605.263C473.808 599.93 473.408 595.396 473.942 594.996C475.008 594.33 551.942 595.396 561.942 596.196C565.275 596.463 573.942 597.13 581.275 597.663C588.608 598.063 596.742 598.73 599.275 598.996C601.808 599.263 607.542 599.93 611.942 600.33C616.342 600.73 621.808 601.396 623.942 601.796C626.208 602.196 630.075 602.596 632.608 602.863C643.275 604.063 651.008 605.13 657.942 606.33C661.942 606.996 667.675 607.93 670.608 608.33C673.542 608.73 676.875 609.263 677.942 609.663C679.008 609.93 682.075 610.463 684.608 610.863C687.142 611.263 693.142 612.463 697.942 613.53C702.742 614.596 708.742 615.93 711.275 616.33C713.808 616.73 724.875 619.53 735.942 622.33C839.542 649.263 916.342 693.53 963.808 753.663C973.008 765.263 974.875 767.796 984.875 783.663C997.808 804.063 1011.54 838.996 1017.41 866.996C1020.61 882.196 1022.21 898.463 1022.21 916.73C1022.21 932.73 1021.94 935.396 1019.14 952.996C1014.21 983.796 1001.01 1019.53 984.342 1047.4C981.542 1051.93 979.275 1055.93 979.275 1056.2C979.275 1057.26 961.942 1082.2 955.008 1091C940.075 1110.06 932.875 1118.06 911.275 1139.66C894.608 1156.33 881.675 1168.33 869.942 1177.8C867.408 1179.93 865.008 1181.93 864.608 1182.33C863.408 1183.8 832.075 1207.93 828.742 1210.06C826.742 1211.26 825.008 1212.6 824.608 1213.13C823.008 1215.13 783.142 1241.93 765.275 1253C760.208 1256.2 754.475 1259.66 752.608 1260.86C746.475 1264.73 743.942 1266.2 741.942 1267.13C740.875 1267.8 736.875 1270.2 733.008 1272.6C729.142 1275 725.808 1277 725.408 1277C725.008 1277 721.808 1278.73 718.342 1280.86C709.275 1286.46 690.742 1296.2 658.608 1312.46C627.808 1328.2 619.275 1333.26 613.275 1339.53C609.542 1343.53 609.408 1343.93 611.408 1347.4C615.142 1354.06 634.208 1356.06 659.275 1352.33C665.542 1351.4 673.275 1350.2 676.608 1349.8C686.875 1348.33 722.342 1342.33 728.608 1341C731.942 1340.33 736.475 1339.4 738.608 1339C740.875 1338.6 743.808 1338.06 745.275 1337.8C746.742 1337.53 754.208 1335.93 761.942 1334.33C798.608 1326.86 850.475 1313.13 884.608 1301.8C901.675 1296.2 931.142 1285.8 937.008 1283.26C939.408 1282.2 943.942 1280.33 947.275 1279C950.608 1277.66 955.675 1275.53 958.608 1274.2C961.542 1273 967.275 1270.6 971.275 1268.86C984.208 1263.53 1023.41 1243.53 1039.27 1234.33C1053.41 1226.06 1082.61 1207.8 1087.27 1204.06C1088.34 1203.26 1096.07 1197.4 1104.34 1191.26C1129.14 1172.6 1158.47 1145.4 1179.94 1121C1209.54 1087.4 1235.41 1045 1253.01 1001.66C1262.87 977.396 1274.07 938.596 1277.27 916.996C1277.81 913.663 1278.34 909.53 1278.61 907.663C1282.34 884.196 1283.81 863.796 1283.81 836.996C1283.81 819.263 1282.61 794.063 1281.41 787.663C1281.01 785.796 1280.47 780.73 1279.94 776.33C1279.54 771.93 1278.87 767.13 1278.61 765.663C1278.21 764.196 1277.67 760.863 1277.41 758.33C1276.34 750.33 1272.61 731.53 1269.14 717.663C1256.61 667.13 1235.94 618.596 1211.94 583.663C1201.41 568.33 1194.87 559.13 1194.07 558.33C1193.54 557.93 1191.14 554.996 1188.61 551.663C1178.87 538.996 1140.87 499.93 1127.27 488.73C1123.94 485.93 1119.81 482.463 1117.94 480.863C1096.21 462.463 1052.07 432.196 1024.74 416.596C998.075 401.663 967.942 386.196 945.275 376.063C940.208 373.796 932.075 370.063 927.275 367.93C922.475 365.796 908.742 360.196 896.608 355.396C884.475 350.596 873.408 346.196 871.942 345.663C868.608 344.33 868.742 344.33 863.942 342.996C861.808 342.463 859.408 341.53 858.608 340.996C857.408 340.063 813.142 325.263 791.275 318.463C770.875 312.063 717.008 297.663 693.942 292.33C674.608 287.796 657.542 284.063 641.275 280.863C618.875 276.33 619.008 276.33 607.942 274.463C603.542 273.663 598.475 272.73 596.608 272.33C590.875 271.13 561.542 266.463 554.608 265.53C551.008 265.13 547.675 264.596 547.275 264.33C546.875 264.063 542.742 263.53 537.942 262.996C529.808 262.196 523.942 261.396 519.275 260.33C518.208 260.063 514.742 259.796 511.542 259.796C506.075 259.663 505.942 259.53 506.742 255.93C507.275 253.929 511.408 242.996 516.075 231.663C523.808 212.463 526.608 206.063 539.808 177.929C542.475 172.329 546.742 162.996 549.408 157.263C552.075 151.663 556.608 141.929 559.542 135.663C562.475 129.396 566.875 120.063 569.275 114.996C577.008 98.3295 583.408 84.5962 589.808 70.9962C605.142 38.4628 609.275 20.1962 603.542 8.99615C599.275 0.46282 590.208 -1.93718 575.542 1.52949Z" fill="#555555" stroke="black" stroke-width="2" mask="url(#path-1-inside-1_53_113)"/>
</svg>
