<svg width="1154" height="1087" viewBox="0 0 1154 1087" fill="none" xmlns="http://www.w3.org/2000/svg">
<path d="M1053.63 16.685C1031.56 25.7134 996.446 43.7701 976.383 56.8111C955.316 69.8521 935.253 79.8835 930.238 79.8835C926.225 79.8835 913.184 87.9087 902.149 97.9403C892.118 106.969 857.008 133.051 825.91 154.117C793.809 175.183 759.702 201.265 748.667 211.296C737.632 222.331 725.595 230.356 722.585 230.356C719.576 230.356 709.544 238.382 699.513 247.41C688.478 257.441 669.418 274.495 656.377 284.527C643.336 295.561 617.254 316.627 599.197 332.678L565.09 361.769L518.945 316.627C433.677 235.372 402.58 210.293 311.293 149.101C218 86.9056 131.728 53.8016 89.5961 63.8331C63.5141 70.8552 37.4322 113.991 41.4448 145.088C52.4794 235.372 145.773 388.854 280.195 536.318C305.274 563.403 326.34 589.485 326.34 593.498C326.34 598.513 317.312 610.551 306.277 621.586C220.006 707.857 21.3817 986.733 4.32814 1044.92C-6.70654 1087.05 2.32183 1095.07 43.4511 1078.02C61.5078 1069.99 77.5583 1064.98 78.5614 1065.98C79.5646 1066.99 87.5898 1061.97 95.615 1054.95C132.732 1023.85 248.094 942.594 256.119 942.594C260.132 942.594 266.151 938.582 268.157 933.566C275.179 911.497 489.854 752.999 501.892 760.021C508.914 764.033 529.98 781.087 549.04 797.137C595.185 839.27 732.617 943.598 787.79 977.705C812.869 992.752 835.941 1010.81 839.954 1016.83C843.967 1022.85 847.979 1024.85 847.979 1020.84C847.979 1016.83 869.045 1023.85 896.13 1036.89C970.364 1074.01 1003.47 1078.02 1026.54 1052.94C1037.57 1040.9 1044.6 1020.84 1042.59 1006.8C1039.58 977.705 1013.5 917.516 989.424 886.418C980.395 874.38 966.351 854.317 958.326 842.279C934.25 806.166 844.97 688.797 829.922 672.747C821.897 664.721 797.822 633.624 774.749 603.529L733.62 549.359L804.844 480.141C843.967 442.021 874.061 410.924 871.052 410.924C869.045 410.924 883.089 393.87 903.153 372.804C1003.47 268.476 1169.99 23.7071 1151.93 6.65348C1140.9 -5.38435 1095.76 -0.36859 1053.63 16.685Z" fill="#FF2626"/>
</svg>
