<svg width="1236" height="1087" viewBox="0 0 1236 1087" fill="none" xmlns="http://www.w3.org/2000/svg">
<path d="M1207.75 3.06875C1174.81 13.7354 1115.75 53.2021 1031.75 120.402C1003.88 142.669 936.552 199.069 933.752 202.402C933.352 202.802 929.218 206.536 924.418 210.536C919.618 214.536 915.085 218.402 914.285 219.202C912.685 220.669 897.218 234.402 892.685 238.269C891.085 239.736 884.552 245.602 878.152 251.336C862.285 265.869 859.352 268.536 852.018 274.936C848.418 278.002 842.952 282.936 839.885 285.869C836.818 288.802 828.152 296.936 820.552 303.869C750.552 368.269 655.085 462.536 596.418 525.202C587.218 534.936 578.818 544.002 577.752 545.069C576.685 546.269 569.218 554.402 561.218 563.202C553.218 572.002 545.352 580.536 543.885 582.136C537.352 589.202 528.552 599.069 514.285 615.736C512.152 618.269 509.752 620.936 508.952 621.736C508.152 622.536 502.818 628.936 497.085 635.869C491.352 642.802 486.018 649.069 485.218 649.869C484.418 650.536 479.218 656.936 473.752 663.869C468.285 670.802 463.485 676.802 463.085 677.202C459.618 680.536 429.885 720.136 422.418 731.469L418.818 737.202L405.885 719.469C357.352 652.802 319.218 607.736 267.218 555.869C250.685 539.336 232.952 522.269 227.885 517.869C222.818 513.469 217.618 508.802 216.285 507.602C214.952 506.402 205.618 498.669 195.485 490.536C151.485 455.202 109.218 431.602 78.418 425.336C74.818 424.669 66.818 424.136 60.818 424.402C51.4846 424.669 48.6846 425.336 40.818 429.336C23.218 438.136 6.41799 459.069 2.41799 477.202C-1.18202 493.736 -0.782015 513.736 3.75132 538.402C5.35132 546.536 13.8846 573.336 19.0846 586.402C34.9513 626.136 60.018 673.202 90.418 720.536C192.285 879.202 295.752 991.869 392.018 1049.07C397.352 1052.27 401.752 1055.2 401.752 1055.74C401.752 1058.27 418.285 1073.34 425.752 1077.74C470.285 1103.87 517.352 1073.74 612.285 957.869C623.618 943.869 633.618 931.869 634.418 930.936C635.085 930.136 637.485 926.936 639.618 924.002C641.885 920.936 644.018 918.536 644.685 918.536C645.218 918.536 645.752 917.736 645.752 916.669C645.752 915.602 646.152 914.536 646.818 914.269C647.352 914.002 654.018 905.736 661.752 895.869C669.352 886.002 676.018 877.602 676.418 877.202C676.818 876.802 678.952 874.136 681.218 871.202C685.885 864.802 733.218 802.669 735.485 799.869C738.685 795.869 753.218 776.802 756.152 772.669C757.752 770.402 759.885 767.602 760.818 766.536C761.618 765.469 774.152 748.936 788.418 729.869C802.685 710.802 814.685 694.936 815.085 694.536C815.485 694.136 817.885 690.802 820.418 687.202C822.952 683.469 825.485 679.869 826.018 679.202C838.152 663.869 910.552 563.069 954.418 500.269C982.552 460.002 1066.95 334.536 1085.35 305.869C1107.48 270.936 1138.01 222.002 1141.08 216.536C1142.28 214.269 1156.41 190.669 1160.55 183.869C1183.61 146.002 1227.08 59.7354 1227.08 51.6021C1227.08 50.5354 1227.61 49.2021 1228.28 48.4021C1230.28 46.4021 1235.48 23.7354 1235.48 17.0688C1235.48 6.13541 1230.28 -0.131248 1221.08 0.00208531C1218.95 0.00208531 1212.95 1.33541 1207.75 3.06875Z" fill="#36A830"/>
</svg>
